<?xml version="1.0" encoding="UTF-8"?>
<svg id="Capa_2" data-name="Capa 2" xmlns="http://www.w3.org/2000/svg" viewBox="0 0 1646.96 215.44">
    <g id="Capa_1-2" data-name="Capa 1">
        <g>
            <path id="path500523" d="M0,210.15h58.28v-70.64h97.42v-45.03H0v115.67ZM0,4.12v45.03h155.7V4.12H0Z" style="fill: #232323;"/>
            <path id="path500525" d="M205.48,4.12v206.03h156.58v-46.21h-98.31V4.12h-58.28Z" style="fill: #232323;"/>
            <path id="path500527"
                  d="M442.77,200.44c17.37,9.42,37.09,13.83,58.87,13.83s41.21-4.41,58.57-13.83c17.37-9.12,30.9-21.78,40.91-38.26,10.01-16.19,15.01-34.44,15.01-55.04s-5-38.56-15.01-55.04c-10.01-16.19-23.55-28.84-40.91-38.26-17.37-9.12-36.79-13.83-58.57-13.83s-41.5,4.71-58.87,13.83c-17.37,9.42-30.9,22.07-40.91,38.26-10.01,16.48-14.72,34.73-14.72,55.04s4.71,38.85,14.72,55.04c10.01,16.48,23.55,29.14,40.91,38.26ZM529.9,158.64c-8.54,5-17.95,7.36-28.26,7.36s-20.01-2.35-28.26-7.36c-8.54-4.71-15.31-11.77-20.01-20.6-5-8.83-7.36-19.13-7.36-30.9s2.35-21.78,7.36-30.61c4.71-8.83,11.48-15.89,20.01-20.9,8.24-4.71,17.66-7.36,28.26-7.36s19.72,2.65,28.26,7.36c8.24,5,15.01,12.07,20.01,20.9,4.71,8.83,7.36,19.13,7.36,30.61s-2.65,22.07-7.36,30.9c-5,8.83-11.77,15.89-20.01,20.6Z"
                  style="fill: #232323;"/>
            <path id="path500529" d="M703.99,50.33v159.82h58.28V50.33h62.99V4.12h-184.55v46.21h63.28Z" style="fill: #232323;"/>
            <path id="path500531" d="M976.29,4.12h-57.39l-90.95,206.03h59.45l16.19-40.03,17.07-42.97,26.49-65.93,26.49,65.93,17.07,42.97,16.19,40.03h60.63L976.29,4.12Z" style="fill: #232323;"/>
            <path id="path500535" d="M1555.72,4.12h-57.39l-90.95,206.03h59.45l16.19-40.03,17.07-42.97,26.49-65.93,26.49,65.93,17.07,42.97,16.19,40.03h60.63L1555.72,4.12Z" style="fill: #232323;"/>
            <path
                d="M1334.15,86.51l-39.8,99.09c-5.12,4.26-12.11,5.78-17.03.3-28.18-36.49-53.18-75.75-81.6-112.02-.9-1.15.04-2.59-3.22-1.79l-28.29,74.37c-.54,5.66,6.08,9.8,8.74,15.15,17.81,35.96-26.2,70.18-56.68,45.37-28.25-23-9.02-68.41,26.55-65.8l37.3-96.31c5.58-9.36,14.68-8.57,20.81-.32l80.65,110.93,32.23-77.32c-16.67-18.35-18.97-44.05,2.39-59.81,32.48-23.96,75.44,15.16,52.18,50.77-8.22,12.57-19.91,15.81-34.23,17.37ZM1346.17,41.39c-10.73-12.7-31.38,11.77-17.03,20.58,16.39,10.07,23.96-12.39,17.03-20.58ZM1133.44,165.74c-1.8,2.13-4.94,14.32-3.51,17.66,5.93,13.87,20.86,3.81,23.81-8.1,2.26-9.16-15.72-14.98-20.29-9.56Z"
                style="fill: #d97706;"/>
        </g>
    </g>
</svg>
