<?xml version="1.0" encoding="UTF-8"?>
<svg id="Capa_2" data-name="Capa 2" xmlns="http://www.w3.org/2000/svg" viewBox="0 0 272.32 204.44">
    <g id="Capa_1-2" data-name="Capa 1">
        <path
            d="M231.46,75.51l-39.8,99.09c-5.12,4.26-12.11,5.78-17.03.3-28.18-36.49-53.18-75.75-81.6-112.02-.9-1.15.04-2.59-3.22-1.79l-28.29,74.37c-.54,5.66,6.08,9.8,8.74,15.15,17.81,35.96-26.2,70.18-56.68,45.37-28.25-23-9.02-68.41,26.55-65.8l37.3-96.31c5.58-9.36,14.68-8.57,20.81-.32l80.65,110.93,32.23-77.32c-16.67-18.35-18.97-44.05,2.39-59.81,32.48-23.96,75.44,15.16,52.18,50.77-8.22,12.57-19.91,15.81-34.23,17.37ZM243.49,30.39c-10.73-12.7-31.38,11.77-17.03,20.58,16.39,10.07,23.96-12.39,17.03-20.58ZM30.75,154.74c-1.8,2.13-4.94,14.32-3.51,17.66,5.93,13.87,20.86,3.81,23.81-8.1,2.26-9.16-15.72-14.98-20.29-9.56Z"
            style="fill: #d97706;"/>
    </g>
</svg>
